<svg width="24" height="24" viewBox="0 0 24 24" fill="none" xmlns="http://www.w3.org/2000/svg"><g clip-path="url(#clip0_981_7840)"><path d="M4.99315 2.5304H2.42548C1.09291 2.5304 0.00878906 3.61447 0.00878906 4.94693V17.5505C0.00878906 18.4879 0.558445 19.3487 1.40899 19.7434C1.47284 19.7731 1.53996 19.7871 1.60601 19.7871C1.78282 19.7871 1.95218 19.6866 2.03149 19.5156C2.14048 19.2808 2.03848 19.0021 1.80368 18.8931C1.28285 18.6514 0.946289 18.1244 0.946289 17.5505V4.94693C0.946289 4.13134 1.60985 3.46781 2.42548 3.46781H4.99315C5.25199 3.46781 5.4619 3.25791 5.4619 2.99908C5.4619 2.74025 5.25199 2.5304 4.99315 2.5304Z" fill="#1A3CE6"/><path d="M21.5972 2.53101H17.581C17.5476 1.1297 16.3981 -0.00012207 14.9889 -0.00012207H9.03886C7.60866 -0.00012207 6.44513 1.16336 6.44513 2.59349V5.2809H3.23264C2.9738 5.2809 2.76389 5.4908 2.76389 5.74963C2.76389 6.00846 2.9738 6.21836 3.23264 6.21836H6.44513V7.71829H3.23264C2.9738 7.71829 2.76389 7.92819 2.76389 8.18702C2.76389 8.44585 2.9738 8.65575 3.23264 8.65575H6.44513V10.1557H3.23264C2.9738 10.1557 2.76389 10.3656 2.76389 10.6244C2.76389 10.8832 2.9738 11.0931 3.23264 11.0931H6.44513V12.5931H3.23264C2.9738 12.5931 2.76389 12.803 2.76389 13.0618C2.76389 13.3206 2.9738 13.5305 3.23264 13.5305H6.44513V16.0669C5.09109 16.2098 4.03242 17.3576 4.03242 18.748C4.03242 18.8214 4.03547 18.895 4.04156 18.9684C3.21314 19.4456 2.69531 20.3261 2.69531 21.3024C2.69531 22.7892 3.90558 23.9987 5.3932 23.9987H17.7529C19.7266 23.9987 21.3323 22.394 21.3323 20.4214C21.3323 18.4489 19.7266 16.8442 17.7529 16.8442C17.5551 16.8442 17.3587 16.8602 17.1654 16.8922C16.7317 15.507 15.7239 14.3391 14.3988 13.7123C14.1646 13.6015 13.8853 13.7015 13.7746 13.9356C13.6639 14.1695 13.7639 14.449 13.9979 14.5597C15.0849 15.0739 15.9117 16.031 16.2685 17.1661C15.9568 17.3085 15.6646 17.4956 15.4057 17.7205C15.087 17.9975 14.822 18.3248 14.6182 18.6933C14.493 18.9199 14.5751 19.205 14.8016 19.3303C14.8735 19.3701 14.9513 19.3889 15.028 19.3889C15.1931 19.3889 15.3532 19.3016 15.4387 19.1469C15.5892 18.8747 15.785 18.633 16.0206 18.4283C16.3213 18.167 16.6824 17.9747 17.0648 17.8719C17.288 17.812 17.519 17.7816 17.7529 17.7816C19.2097 17.7816 20.3948 18.9659 20.3948 20.4214C20.3948 21.877 19.2097 23.0613 17.753 23.0613H5.39325C4.42256 23.0613 3.63286 22.2723 3.63286 21.3025C3.63286 20.5829 4.0643 19.9431 4.73208 19.6724C4.94456 19.5862 5.06353 19.3589 5.01328 19.1352C4.98455 19.0072 4.96992 18.8769 4.96992 18.7481C4.96992 17.7782 5.75963 16.9892 6.73031 16.9892C6.9983 16.9892 7.25545 17.0477 7.49466 17.1632C7.61269 17.2201 7.74914 17.225 7.87092 17.1768C7.9928 17.1286 8.0888 17.0315 8.13586 16.9092C8.54484 15.8458 9.37823 14.972 10.4223 14.5119C10.6592 14.4076 10.7667 14.1309 10.6623 13.894C10.5579 13.6571 10.2813 13.5496 10.0443 13.654C8.91534 14.1514 7.98867 15.0463 7.4467 16.1476C7.42542 16.1418 7.404 16.1365 7.38258 16.1311V2.59349C7.38263 1.68032 8.12564 0.937335 9.03886 0.937335H14.9889C15.9021 0.937335 16.6451 1.68032 16.6451 2.59349V14.1092C16.6451 14.368 16.855 14.5779 17.1139 14.5779C17.3727 14.5779 17.5826 14.368 17.5826 14.1092V13.5305H20.7951C21.054 13.5305 21.2639 13.3206 21.2639 13.0618C21.2639 12.803 21.054 12.5931 20.7951 12.5931H17.5826V11.0931H20.7951C21.054 11.0931 21.2639 10.8832 21.2639 10.6244C21.2639 10.3656 21.054 10.1557 20.7951 10.1557H17.5826V8.65575H20.7951C21.054 8.65575 21.2639 8.44585 21.2639 8.18702C21.2639 7.92819 21.054 7.71829 20.7951 7.71829H17.5826V6.21836H20.7951C21.054 6.21836 21.2639 6.00846 21.2639 5.74963C21.2639 5.4908 21.054 5.2809 20.7951 5.2809H17.5826V3.46847H21.5972C22.4128 3.46847 23.0764 4.132 23.0764 4.94759V17.5512C23.0764 17.9123 22.9448 18.2599 22.7061 18.5302C22.5346 18.7241 22.5529 19.0204 22.7469 19.1918C22.836 19.2706 22.9468 19.3093 23.0571 19.3093C23.1868 19.3093 23.3159 19.2558 23.4085 19.151C23.7989 18.7093 24.0139 18.1411 24.0139 17.5512V4.94754C24.0139 3.61509 22.9297 2.53101 21.5972 2.53101Z" fill="#1A3CE6"/><path d="M14.0703 2.99951H9.94531C9.68647 2.99951 9.47656 3.20941 9.47656 3.46824C9.47656 3.72707 9.68647 3.93697 9.94531 3.93697H14.0703C14.3292 3.93697 14.5391 3.72707 14.5391 3.46824C14.5391 3.20936 14.3292 2.99951 14.0703 2.99951Z" fill="#1A3CE6"/><path d="M14.0703 7.87451H9.94531C9.68647 7.87451 9.47656 8.08441 9.47656 8.34324C9.47656 8.60207 9.68647 8.81197 9.94531 8.81197H14.0703C14.3292 8.81197 14.5391 8.60207 14.5391 8.34324C14.5391 8.08436 14.3292 7.87451 14.0703 7.87451Z" fill="#1A3CE6"/><path d="M14.0703 5.43701H9.94531C9.68647 5.43701 9.47656 5.64691 9.47656 5.90574C9.47656 6.16457 9.68647 6.37447 9.94531 6.37447H14.0703C14.3292 6.37447 14.5391 6.16457 14.5391 5.90574C14.5391 5.64686 14.3292 5.43701 14.0703 5.43701Z" fill="#1A3CE6"/><path d="M14.0703 10.312H9.94531C9.68647 10.312 9.47656 10.5219 9.47656 10.7807C9.47656 11.0396 9.68647 11.2495 9.94531 11.2495H14.0703C14.3292 11.2495 14.5391 11.0396 14.5391 10.7807C14.5391 10.5219 14.3292 10.312 14.0703 10.312Z" fill="#1A3CE6"/><path d="M12.1698 13.2109C12.1652 13.2109 12.1605 13.211 12.1559 13.2111L12.1523 13.211C11.8935 13.211 11.6836 13.4209 11.6836 13.6797C11.6836 13.9385 11.8935 14.1484 12.1523 14.1484C12.1546 14.1484 12.1568 14.1484 12.159 14.1484L12.164 14.1484C12.165 14.1484 12.166 14.1484 12.167 14.1484C12.4245 14.1484 12.634 13.9405 12.6357 13.6826C12.6373 13.4238 12.4288 13.2126 12.1698 13.2109Z" fill="#1A3CE6"/><path d="M14.457 20.2887C14.1982 20.2887 13.9883 20.4986 13.9883 20.7574V20.7647C13.9883 21.0236 14.1982 21.2335 14.457 21.2335C14.7159 21.2335 14.9258 21.0236 14.9258 20.7647V20.7574C14.9258 20.4985 14.7159 20.2887 14.457 20.2887Z" fill="#1A3CE6"/><path d="M5.13302 14.6066C4.40162 14.6066 3.80664 15.2015 3.80664 15.9329C3.80664 16.1917 4.01655 16.4016 4.27539 16.4016C4.53423 16.4016 4.74414 16.1917 4.74414 15.9329C4.74414 15.7185 4.91861 15.544 5.13302 15.544C5.39186 15.544 5.60177 15.3341 5.60177 15.0753C5.60177 14.8164 5.39186 14.6066 5.13302 14.6066Z" fill="#1A3CE6"/><path d="M18.8643 14.6066C18.6054 14.6066 18.3955 14.8164 18.3955 15.0753C18.3955 15.3341 18.6054 15.544 18.8643 15.544C19.0787 15.544 19.2531 15.7185 19.2531 15.9329C19.2531 16.1917 19.463 16.4016 19.7219 16.4016C19.9807 16.4016 20.1906 16.1917 20.1906 15.9329C20.1906 15.2015 19.5956 14.6066 18.8643 14.6066Z" fill="#1A3CE6"/></g><defs><clipPath id="clip0_981_7840"><rect width="24" height="23.9989" fill="white"/></clipPath></defs></svg>