<svg width="24" height="24" viewBox="0 0 24 24" fill="none" xmlns="http://www.w3.org/2000/svg"><g clip-path="url(#clip0_981_7375)"><path d="M12.1065 12.3088C12.6502 12.3088 13.0909 11.8681 13.0909 11.3245C13.0909 10.7808 12.6502 10.3401 12.1065 10.3401C11.5628 10.3401 11.1221 10.7808 11.1221 11.3245C11.1221 11.8681 11.5628 12.3088 12.1065 12.3088Z" stroke="#1A3CE6" stroke-width="0.937479" stroke-miterlimit="10" stroke-linecap="round" stroke-linejoin="round"/><path d="M21.3063 7.32523C21.3063 9.44646 19.556 11.2445 17.4487 11.3216C17.4469 11.3216 17.4234 11.3216 17.3802 11.3221C17.1843 11.3221 16.5851 11.3225 15.7552 11.323C15.7552 11.3225 15.7552 11.3225 15.7552 11.3221C15.7552 10.9994 15.7134 10.6872 15.6345 10.3894C15.1926 10.5726 14.6723 10.404 14.4262 9.97856C14.1806 9.55263 14.2947 9.01823 14.6742 8.72705C14.2308 8.28701 13.6757 7.95923 13.0549 7.79114C12.9924 8.26592 12.5866 8.63223 12.0945 8.63223C11.6028 8.63223 11.197 8.26592 11.1346 7.79114C10.5142 7.95928 9.95864 8.28706 9.5153 8.72705C9.89475 9.01823 10.0084 9.55263 9.76327 9.97856C9.51717 10.404 8.99728 10.5726 8.55492 10.3894C8.47603 10.6872 8.43422 10.9994 8.43422 11.3221V11.3244C6.85767 11.3244 5.7113 11.3244 5.7113 11.3244C5.6723 11.3244 5.63334 11.3235 5.59481 11.3221C3.98306 11.261 2.69531 9.93534 2.69531 8.30862C2.69531 6.64295 4.0455 5.29329 5.71125 5.29329C5.81222 5.29329 5.91131 5.29845 6.00947 5.30834C6.30309 2.58741 8.60662 0.468994 11.4051 0.468994C13.5288 0.468994 15.3669 1.68905 16.2583 3.46604C16.5926 3.37539 16.9444 3.32608 17.3074 3.32608C19.4588 3.32608 21.3063 5.15426 21.3063 7.32523Z" stroke="#1A3CE6" stroke-width="0.937479" stroke-miterlimit="10" stroke-linecap="round" stroke-linejoin="round"/><path d="M19.219 13.4525V12.2339C19.219 11.7302 18.8106 11.3218 18.3068 11.3218H15.7555C15.7555 11.3222 15.7555 11.3222 15.7555 11.3227V11.3241C15.7555 11.6477 15.7137 11.9604 15.6348 12.2591C15.1929 12.076 14.6726 12.2445 14.4265 12.67C14.1808 13.0959 14.295 13.6303 14.6744 13.9215C14.2311 14.3615 13.676 14.6893 13.0551 14.8574C12.9927 14.3826 12.5869 14.0163 12.0948 14.0163C11.603 14.0163 11.1973 14.3826 11.1349 14.8574C10.5145 14.6893 9.95891 14.3615 9.51556 13.9215C9.89502 13.6303 10.0087 13.0959 9.76353 12.67C9.51744 12.2445 8.99755 12.0759 8.55519 12.2596C8.4763 11.9609 8.43448 11.6477 8.43448 11.3241V11.3218H5.74227C5.2385 11.3218 4.83008 11.7301 4.83008 12.2339V19.3154H19.219V17.5847" stroke="#1A3CE6" stroke-width="0.937479" stroke-miterlimit="10" stroke-linecap="round" stroke-linejoin="round"/><path d="M18.3071 21.2525H5.74236C5.23855 21.2525 4.83008 20.8441 4.83008 20.3402V19.3157H19.2193V20.3402C19.2194 20.844 18.811 21.2525 18.3071 21.2525Z" stroke="#1A3CE6" stroke-width="0.937479" stroke-miterlimit="10" stroke-linecap="round" stroke-linejoin="round"/><path d="M15.6375 10.3891C15.1955 10.5723 14.6752 10.4041 14.4295 9.97845C14.1834 9.55238 14.2978 9.01802 14.677 8.72694C14.2336 8.28681 13.6786 7.95917 13.058 7.79089C12.9956 8.26572 12.5897 8.63226 12.0975 8.63226C11.6058 8.63226 11.1998 8.26572 11.1375 7.79089C10.5169 7.95917 9.96187 8.28681 9.51844 8.72694C9.89766 9.01802 10.0116 9.55238 9.76594 9.97845C9.52031 10.4041 9 10.5723 8.55797 10.3891C8.47922 10.6881 8.4375 11.0007 8.4375 11.3242C8.4375 11.6476 8.47922 11.9612 8.55797 12.2598C9 12.0765 9.52031 12.2448 9.76594 12.6704C10.0116 13.096 9.89766 13.6303 9.51844 13.9219C9.96187 14.3615 10.5169 14.6896 11.1375 14.8579C11.1998 14.3831 11.6058 14.0165 12.0975 14.0165C12.5897 14.0165 12.9956 14.3831 13.058 14.8579C13.6786 14.6896 14.2336 14.3615 14.677 13.9219C14.2978 13.6303 14.1834 13.096 14.4295 12.6704C14.6752 12.2448 15.1955 12.0765 15.6375 12.2593C15.7162 11.9607 15.758 11.6476 15.758 11.3242C15.758 11.0007 15.7162 10.6881 15.6375 10.3891ZM12.0975 12.3085C11.554 12.3085 11.1131 11.868 11.1131 11.3242C11.1131 10.7807 11.554 10.3398 12.0975 10.3398C12.6414 10.3398 13.0823 10.7807 13.0823 11.3242C13.0823 11.868 12.6414 12.3085 12.0975 12.3085Z" stroke="#1A3CE6" stroke-width="0.937479" stroke-miterlimit="10" stroke-linecap="round" stroke-linejoin="round"/><path d="M10.7411 21.2984V21.2528H13.2615V21.2984C13.2615 21.9036 13.3977 22.5011 13.6602 23.0465L13.8932 23.5305H10.1094L10.3423 23.0464C10.6047 22.5011 10.7411 21.9036 10.7411 21.2984Z" stroke="#1A3CE6" stroke-width="0.937479" stroke-miterlimit="10" stroke-linecap="round" stroke-linejoin="round"/><path d="M14.6024 23.5303H9.40527" stroke="#1A3CE6" stroke-width="0.937479" stroke-miterlimit="10" stroke-linecap="round" stroke-linejoin="round"/><path d="M17.2025 15.0138C15.9824 16.5349 14.1086 17.5084 12.007 17.5084C9.90541 17.5084 8.03112 16.5349 6.81152 15.0138" stroke="#1A3CE6" stroke-width="0.937479" stroke-miterlimit="10" stroke-linecap="round" stroke-linejoin="round"/><path d="M6.80273 7.54076C8.02237 6.01735 9.89803 5.0415 12.002 5.0415C14.1054 5.0415 15.9811 6.01735 17.2012 7.54076" stroke="#1A3CE6" stroke-width="0.937479" stroke-miterlimit="10" stroke-linecap="round" stroke-linejoin="round"/><path d="M17.3292 6.06384V7.54053H15.8525" stroke="#1A3CE6" stroke-width="0.937479" stroke-miterlimit="10" stroke-linecap="round" stroke-linejoin="round"/><path d="M8.28827 15.0138H6.81152V16.4904" stroke="#1A3CE6" stroke-width="0.937479" stroke-miterlimit="10" stroke-linecap="round" stroke-linejoin="round"/></g><defs><clipPath id="clip0_981_7375"><rect width="24" height="23.9989" fill="white"/></clipPath></defs></svg>