<svg width="24" height="24" viewBox="0 0 24 24" fill="none" xmlns="http://www.w3.org/2000/svg"><g clip-path="url(#clip0_981_6875)"><mask id="mask0_981_6875" style="mask-type:luminance" maskUnits="userSpaceOnUse" x="0" y="-1" width="25" height="25"><path d="M0.0224609 -0.000347137H24.0225V23.9973H0.0224609V-0.000347137Z" fill="white"/></mask><g mask="url(#mask0_981_6875)"><path d="M19.0631 8.17261C21.1953 8.17261 22.9345 6.44281 22.9345 4.31972C22.9345 2.19794 21.1953 0.468139 19.0631 0.468139C16.9309 0.468139 15.1904 2.19794 15.1904 4.31972C15.1904 6.44281 16.9309 8.17261 19.0631 8.17261Z" stroke="#1A3CE6" stroke-width="0.944391" stroke-miterlimit="10" stroke-linecap="round" stroke-linejoin="round"/><path d="M6.55078 9.47521C6.91055 6.32781 9.58177 3.88314 12.8238 3.88314C13.6589 3.88314 14.4555 4.04663 15.1856 4.34154C15.1963 6.37431 16.7894 8.03366 18.8021 8.16523C19.0185 8.80426 19.1367 9.48983 19.1367 10.2019C19.1367 12.155 18.2511 13.9007 16.8611 15.0593L16.2437 16.9671C16.0698 17.5025 15.7831 17.9901 15.2215 17.9901H10.4248C9.8632 17.9901 9.57642 17.5025 9.40383 16.9671L8.78648 15.0593C8.27006 14.6301 7.82395 14.1186 7.46681 13.5473" stroke="#1A3CE6" stroke-width="0.944391" stroke-miterlimit="10" stroke-linecap="round" stroke-linejoin="round"/><path d="M8.78809 15.0588H16.8759" stroke="#1A3CE6" stroke-width="0.944391" stroke-miterlimit="10" stroke-linecap="round" stroke-linejoin="round"/><path d="M14.9251 17.9899V18.5426C14.9251 19.6918 13.9851 20.6324 12.8367 20.6324C11.687 20.6324 10.7471 19.6918 10.7471 18.5426V17.9899" stroke="#1A3CE6" stroke-width="0.944391" stroke-miterlimit="10" stroke-linecap="round" stroke-linejoin="round"/><path d="M9.18262 11.3893C9.18262 10.7462 9.70307 10.2254 10.3456 10.2254C10.9882 10.2254 11.5086 10.7462 11.5086 11.3893V15.0588H14.1625V11.3893C14.1625 10.7462 14.683 10.2254 15.3255 10.2254C15.9681 10.2254 16.4885 10.7462 16.4885 11.3893" stroke="#1A3CE6" stroke-width="0.944391" stroke-miterlimit="10" stroke-linecap="round" stroke-linejoin="round"/><path d="M8.73796 1.9375C9.98858 1.32903 11.3919 0.987531 12.8761 0.987531C14.0817 0.987531 15.2367 1.21476 16.2974 1.6253M21.738 7.10703C22.135 8.15266 22.3527 9.2859 22.3527 10.471C22.3527 12.8731 21.4606 15.0666 19.9882 16.7379V17.4953V17.5882V18.6684V23.2254C19.9882 23.3915 19.8528 23.5283 19.6855 23.5283H7.26032C7.09438 23.5283 6.9576 23.3915 6.9576 23.2254V20.5258C6.9576 20.0594 6.96557 19.8189 6.3801 19.8189H4.5493C3.91738 19.8189 3.3996 19.3021 3.3996 18.6684V15.0613H1.62721C0.977991 15.0613 1.00058 14.7929 1.2674 14.2561L3.37438 10.0219C3.40358 9.96345 3.41287 9.9688 3.41554 9.90238C3.53498 7.8922 4.27982 6.0508 5.45741 4.56942" stroke="#1A3CE6" stroke-width="0.944391" stroke-miterlimit="10" stroke-linecap="round" stroke-linejoin="round"/><path d="M17.4639 4.11523L18.4888 5.24316L20.6688 3.39778" stroke="#1A3CE6" stroke-width="0.944391" stroke-miterlimit="10" stroke-linecap="round" stroke-linejoin="round"/><path d="M6.92383 3.0907L6.93286 3.08469" stroke="#1A3CE6" stroke-width="0.944391" stroke-miterlimit="10" stroke-linecap="round" stroke-linejoin="round"/><path d="M6.83398 11.4916L6.83701 11.5007" stroke="#1A3CE6" stroke-width="0.944391" stroke-miterlimit="10" stroke-linecap="round" stroke-linejoin="round"/></g></g><defs><clipPath id="clip0_981_6875"><rect width="24" height="23.9977" fill="white"/></clipPath></defs></svg>