<svg width="24" height="24" viewBox="0 0 24 24" fill="none" xmlns="http://www.w3.org/2000/svg"><g clip-path="url(#clip0_981_7559)"><path d="M14.3213 5.07007H18.0904C18.2924 5.07007 18.4569 5.23412 18.4569 5.43658V10.7144" stroke="#1A3CE6" stroke-width="0.939313" stroke-miterlimit="10" stroke-linecap="round" stroke-linejoin="round"/><path d="M13.3914 15.8386H0.826489C0.624016 15.8386 0.459961 15.6746 0.459961 15.4721V3.52215C0.459961 3.32016 0.624016 3.15564 0.826489 3.15564H5.46568C5.61146 3.15564 5.74362 3.24234 5.80172 3.37637L6.44244 4.84989C6.50054 4.98345 6.63275 5.07015 6.77849 5.07015H10.0966" stroke="#1A3CE6" stroke-width="0.939313" stroke-miterlimit="10" stroke-linecap="round" stroke-linejoin="round"/><path d="M4.62891 8.84725V12.2306C4.62891 12.3145 4.67367 12.392 4.74632 12.4339L7.67648 14.1256C7.74914 14.1675 7.83866 14.1675 7.91132 14.1256L10.8415 12.4339C10.9141 12.392 10.9589 12.3145 10.9589 12.2306V8.84725C10.9589 8.76337 10.9141 8.68583 10.8415 8.64389L7.91132 6.95223C7.83866 6.91029 7.74914 6.91029 7.67648 6.95223L4.74632 8.64389C4.67367 8.68583 4.62891 8.76337 4.62891 8.84725Z" stroke="#1A3CE6" stroke-width="0.939313" stroke-miterlimit="10" stroke-linecap="round" stroke-linejoin="round"/><path d="M7.78613 14.1363V10.3597" stroke="#1A3CE6" stroke-width="0.939313" stroke-miterlimit="10" stroke-linecap="round" stroke-linejoin="round"/><path d="M7.78862 10.3598L4.67285 8.73242" stroke="#1A3CE6" stroke-width="0.939313" stroke-miterlimit="10" stroke-linecap="round" stroke-linejoin="round"/><path d="M10.9232 8.73145L7.78613 10.3598" stroke="#1A3CE6" stroke-width="0.939313" stroke-miterlimit="10" stroke-linecap="round" stroke-linejoin="round"/><path d="M23.5267 16.2476V15.3102C23.5267 15.0513 23.3169 14.8415 23.058 14.8415H22.5375C22.432 14.3808 22.2501 13.9493 22.0063 13.5605L22.3748 13.192C22.5578 13.009 22.5578 12.7122 22.3748 12.5292L21.7119 11.8664C21.5289 11.6834 21.2321 11.6834 21.0491 11.8664L20.6806 12.2349C20.2918 11.991 19.8603 11.8092 19.3995 11.7036V11.1831C19.3995 10.9243 19.1897 10.7145 18.9308 10.7145H17.9934C17.7346 10.7145 17.5248 10.9243 17.5248 11.1831V11.7036C17.064 11.8092 16.6324 11.991 16.2436 12.2349L15.8751 11.8664C15.6921 11.6834 15.3953 11.6834 15.2123 11.8664L14.5495 12.5292C14.3664 12.7122 14.3664 13.009 14.5495 13.192L14.918 13.5605C14.6741 13.9492 14.4923 14.3808 14.3867 14.8415H13.8661C13.6073 14.8415 13.3975 15.0513 13.3975 15.3101V16.2475C13.3975 16.5064 13.6073 16.7162 13.8661 16.7162H14.3867C14.4922 17.1769 14.6741 17.6085 14.9179 17.9972L14.5494 18.3657C14.3664 18.5487 14.3664 18.8455 14.5494 19.0285L15.2123 19.6913C15.3953 19.8743 15.6921 19.8743 15.8751 19.6913L16.2436 19.3228C16.6323 19.5666 17.0639 19.7485 17.5247 19.854V20.3745C17.5247 20.6333 17.7346 20.8432 17.9934 20.8432H18.9308C19.1897 20.8432 19.3995 20.6333 19.3995 20.3745V19.854C19.8602 19.7485 20.2918 19.5666 20.6805 19.3228L21.049 19.6913C21.2321 19.8743 21.5289 19.8743 21.7119 19.6913L22.3747 19.0285C22.5578 18.8455 22.5578 18.5487 22.3747 18.3657L22.0062 17.9972C22.2501 17.6085 22.4319 17.1769 22.5375 16.7161H23.058C23.3169 16.7163 23.5267 16.5064 23.5267 16.2476Z" stroke="#1A3CE6" stroke-width="0.939313" stroke-miterlimit="10" stroke-linecap="round" stroke-linejoin="round"/><path d="M18.4562 17.7698C19.584 17.7698 20.4983 16.8556 20.4983 15.7278C20.4983 14.6 19.584 13.6858 18.4562 13.6858C17.3283 13.6858 16.4141 14.6 16.4141 15.7278C16.4141 16.8556 17.3283 17.7698 18.4562 17.7698Z" stroke="#1A3CE6" stroke-width="0.939313" stroke-miterlimit="10" stroke-linecap="round" stroke-linejoin="round"/></g><defs><clipPath id="clip0_981_7559"><rect width="24" height="23.9989" fill="white"/></clipPath></defs></svg>